<svg width="19" height="19" viewBox="0 0 19 19" fill="none" xmlns="http://www.w3.org/2000/svg">
<path d="M9.43513 4.99829C12.0191 4.99829 14.1519 7.1311 14.1519 9.71509C14.1519 12.3401 12.0191 14.4319 9.43513 14.4319C6.81013 14.4319 4.71834 12.3401 4.71834 9.71509C4.71834 7.1311 6.81013 4.99829 9.43513 4.99829ZM9.43513 12.7913C11.1168 12.7913 12.4703 11.4377 12.4703 9.71509C12.4703 8.03345 11.1168 6.67993 9.43513 6.67993C7.71248 6.67993 6.35896 8.03345 6.35896 9.71509C6.35896 11.4377 7.75349 12.7913 9.43513 12.7913ZM15.4234 4.83423C15.4234 5.44946 14.9312 5.94165 14.316 5.94165C13.7008 5.94165 13.2086 5.44946 13.2086 4.83423C13.2086 4.21899 13.7008 3.72681 14.316 3.72681C14.9312 3.72681 15.4234 4.21899 15.4234 4.83423ZM18.5406 5.94165C18.6226 7.45923 18.6226 12.012 18.5406 13.5295C18.4586 15.0061 18.1304 16.2776 17.064 17.385C15.9976 18.4514 14.6851 18.7795 13.2086 18.8616C11.691 18.9436 7.13826 18.9436 5.62068 18.8616C4.14412 18.7795 2.87263 18.4514 1.76521 17.385C0.698805 16.2776 0.37068 15.0061 0.288649 13.5295C0.206617 12.012 0.206617 7.45923 0.288649 5.94165C0.37068 4.46509 0.698805 3.15259 1.76521 2.08618C2.87263 1.01978 4.14412 0.69165 5.62068 0.609619C7.13826 0.527588 11.691 0.527588 13.2086 0.609619C14.6851 0.69165 15.9976 1.01978 17.064 2.08618C18.1304 3.15259 18.4586 4.46509 18.5406 5.94165ZM16.5719 15.1292C17.064 13.9397 16.941 11.0686 16.941 9.71509C16.941 8.40259 17.064 5.53149 16.5719 4.30103C16.2437 3.52173 15.6285 2.86548 14.8492 2.57837C13.6187 2.08618 10.7476 2.20923 9.43513 2.20923C8.08162 2.20923 5.21052 2.08618 4.02107 2.57837C3.20076 2.90649 2.58552 3.52173 2.2574 4.30103C1.76521 5.53149 1.88826 8.40259 1.88826 9.71509C1.88826 11.0686 1.76521 13.9397 2.2574 15.1292C2.58552 15.9495 3.20076 16.5647 4.02107 16.8928C5.21052 17.385 8.08162 17.262 9.43513 17.262C10.7476 17.262 13.6187 17.385 14.8492 16.8928C15.6285 16.5647 16.2847 15.9495 16.5719 15.1292Z" fill="#CEB57D"/>
</svg>
