<svg width="23" height="17" viewBox="0 0 23 17" fill="none" xmlns="http://www.w3.org/2000/svg">
<path d="M22.351 3.34204C22.8431 5.0647 22.8431 8.7561 22.8431 8.7561C22.8431 8.7561 22.8431 12.4065 22.351 14.1702C22.1049 15.1545 21.3256 15.8928 20.3822 16.1389C18.6185 16.5901 11.6459 16.5901 11.6459 16.5901C11.6459 16.5901 4.6322 16.5901 2.86853 16.1389C1.92517 15.8928 1.14587 15.1545 0.899781 14.1702C0.407594 12.4065 0.407594 8.7561 0.407594 8.7561C0.407594 8.7561 0.407594 5.0647 0.899781 3.34204C1.14587 2.35767 1.92517 1.57837 2.86853 1.33228C4.6322 0.840088 11.6459 0.840088 11.6459 0.840088C11.6459 0.840088 18.6185 0.840088 20.3822 1.33228C21.3256 1.57837 22.1049 2.35767 22.351 3.34204ZM9.349 12.0784L15.1732 8.7561L9.349 5.43384V12.0784Z" fill="white"/>
</svg>
